<svg xmlns="http://www.w3.org/2000/svg" xmlns:xlink="http://www.w3.org/1999/xlink" xmlns:lucid="lucid" width="840" height="480"><g transform="translate(-60 0)" lucid:page-tab-id="aP6g~4QrKdwC"><path d="M80 20h240v60H80z" stroke="#000" stroke-opacity="0" stroke-width="2" fill="#fff" fill-opacity="0"/><use xlink:href="#a" transform="matrix(1,0,0,1,85,25) translate(0 14.4)"/><use xlink:href="#b" transform="matrix(1,0,0,1,85,25) translate(64.9 14.4)"/><use xlink:href="#c" transform="matrix(1,0,0,1,85,25) translate(98.55000000000001 14.4)"/><use xlink:href="#d" transform="matrix(1,0,0,1,85,25) translate(108.55000000000001 14.4)"/><use xlink:href="#e" transform="matrix(1,0,0,1,85,25) translate(179.45000000000002 14.4)"/><path d="M80 60h160v400H80z" stroke="#000" stroke-width="2" fill="#fff"/><use xlink:href="#f" transform="matrix(1,0,0,1,85,65) translate(42.05 187.8)"/><use xlink:href="#g" transform="matrix(1,0,0,1,85,65) translate(39.525 209.4)"/><path d="M400 60h160v160H400z" stroke="#000" stroke-width="2" fill="#fff"/><use xlink:href="#h" transform="matrix(1,0,0,1,405,65) translate(40.599999999999994 78.60000000000001)"/><path d="M720 60h160v400H720z" stroke="#000" stroke-width="2" fill="#fff"/><use xlink:href="#i" transform="matrix(1,0,0,1,725,65) translate(43.05 187.8)"/><use xlink:href="#j" transform="matrix(1,0,0,1,725,65) translate(52.5 209.4)"/><path d="M287.05 141h-27.8v-2h27.8zm93.7 0h-27.8v-2h27.8zM258.5 144.64L244.24 140l14.26-4.64z"/><path d="M259.5 146l-18.5-6 18.5-6zm-12.03-6l10.03 3.26v-6.52zM395.76 140l-14.26 4.64v-9.28z"/><path d="M399 140l-18.5 6v-12zm-16.5 3.26l10.03-3.26-10.03-3.26z"/><use xlink:href="#k" transform="matrix(1,0,0,1,287.05,118.4) translate(0 14.4)"/><use xlink:href="#l" transform="matrix(1,0,0,1,287.05,118.4) translate(0 36)"/><path d="M426.95 381h-167.7v-2h167.7zm273.8 0h-167.7v-2h167.7zM715.76 380l-14.26 4.64v-9.28z"/><path d="M719 380l-18.5 6v-12zm-16.5 3.26l10.03-3.26-10.03-3.26zM258.5 384.64L244.24 380l14.26-4.64z"/><path d="M259.5 386l-18.5-6 18.5-6zm-12.03-6l10.03 3.26v-6.52z"/><use xlink:href="#m" transform="matrix(1,0,0,1,426.95,369.2) translate(0.005000000000002558 14.4)"/><use xlink:href="#n" transform="matrix(1,0,0,1,426.95,369.2) translate(40.205000000000005 14.4)"/><path d="M610.05 141h-30.8v-2h30.8zm90.7 0h-30.8v-2h30.8zM578.5 144.64L564.24 140l14.26-4.64z"/><path d="M579.5 146l-18.5-6 18.5-6zm-12.03-6l10.03 3.26v-6.52zM715.76 140l-14.26 4.64v-9.28z"/><path d="M719 140l-18.5 6v-12zm-16.5 3.26l10.03-3.26-10.03-3.26z"/><g><use xlink:href="#k" transform="matrix(1,0,0,1,610.05,118.4) translate(0 14.4)"/><use xlink:href="#o" transform="matrix(1,0,0,1,610.05,118.4) translate(0 36)"/></g><defs><path d="M33 0v-248h34V0H33" id="p"/><path d="M117-194c89-4 53 116 60 194h-32v-121c0-31-8-49-39-48C34-167 62-67 57 0H25l-1-190h30c1 10-1 24 2 32 11-22 29-35 61-36" id="q"/><path d="M59-47c-2 24 18 29 38 22v24C64 9 27 4 27-40v-127H5v-23h24l9-43h21v43h35v23H59v120" id="r"/><path d="M100-194c63 0 86 42 84 106H49c0 40 14 67 53 68 26 1 43-12 49-29l28 8c-11 28-37 45-77 45C44 4 14-33 15-96c1-61 26-98 85-98zm52 81c6-60-76-77-97-28-3 7-6 17-6 28h103" id="s"/><path d="M114-163C36-179 61-72 57 0H25l-1-190h30c1 12-1 29 2 39 6-27 23-49 58-41v29" id="t"/><path d="M141-36C126-15 110 5 73 4 37 3 15-17 15-53c-1-64 63-63 125-63 3-35-9-54-41-54-24 1-41 7-42 31l-33-3c5-37 33-52 76-52 45 0 72 20 72 64v82c-1 20 7 32 28 27v20c-31 9-61-2-59-35zM48-53c0 20 12 33 32 33 41-3 63-29 60-74-43 2-92-5-92 41" id="u"/><path d="M24 0v-261h32V0H24" id="v"/><g id="a"><use transform="matrix(0.05,0,0,0.05,0,0)" xlink:href="#p"/><use transform="matrix(0.05,0,0,0.05,5,0)" xlink:href="#q"/><use transform="matrix(0.05,0,0,0.05,15,0)" xlink:href="#r"/><use transform="matrix(0.05,0,0,0.05,20,0)" xlink:href="#s"/><use transform="matrix(0.05,0,0,0.05,30,0)" xlink:href="#t"/><use transform="matrix(0.05,0,0,0.05,35.95,0)" xlink:href="#q"/><use transform="matrix(0.05,0,0,0.05,45.95,0)" xlink:href="#u"/><use transform="matrix(0.05,0,0,0.05,55.95,0)" xlink:href="#v"/></g><path d="M185-189c-5-48-123-54-124 2 14 75 158 14 163 119 3 78-121 87-175 55-17-10-28-26-33-46l33-7c5 56 141 63 141-1 0-78-155-14-162-118-5-82 145-84 179-34 5 7 8 16 11 25" id="w"/><path d="M30-248c87 1 191-15 191 75 0 78-77 80-158 76V0H30v-248zm33 125c57 0 124 11 124-50 0-59-68-47-124-48v98" id="x"/><g id="b"><use transform="matrix(0.05,0,0,0.05,0,0)" xlink:href="#w"/><use transform="matrix(0.05,0,0,0.05,12,0)" xlink:href="#p"/><use transform="matrix(0.05,0,0,0.05,17,0)" xlink:href="#x"/></g><path d="M0 4l72-265h28L28 4H0" id="y"/><use transform="matrix(0.05,0,0,0.05,0,0)" xlink:href="#y" id="c"/><path d="M30 0v-248h187v28H63v79h144v27H63v87h162V0H30" id="z"/><path d="M141 0L90-78 38 0H4l68-98-65-92h35l48 74 47-74h35l-64 92 68 98h-35" id="A"/><g id="d"><use transform="matrix(0.05,0,0,0.05,0,0)" xlink:href="#z"/><use transform="matrix(0.05,0,0,0.05,12,0)" xlink:href="#A"/><use transform="matrix(0.05,0,0,0.05,21,0)" xlink:href="#r"/><use transform="matrix(0.05,0,0,0.05,26,0)" xlink:href="#s"/><use transform="matrix(0.05,0,0,0.05,36,0)" xlink:href="#t"/><use transform="matrix(0.05,0,0,0.05,41.95,0)" xlink:href="#q"/><use transform="matrix(0.05,0,0,0.05,51.95,0)" xlink:href="#u"/><use transform="matrix(0.05,0,0,0.05,61.95,0)" xlink:href="#v"/></g><path d="M233-177c-1 41-23 64-60 70L243 0h-38l-65-103H63V0H30v-248c88 3 205-21 203 71zM63-129c60-2 137 13 137-47 0-61-80-42-137-45v92" id="B"/><path d="M127-220V0H93v-220H8v-28h204v28h-85" id="C"/><g id="e"><use transform="matrix(0.05,0,0,0.05,0,0)" xlink:href="#B"/><use transform="matrix(0.05,0,0,0.05,12.600000000000001,0)" xlink:href="#C"/><use transform="matrix(0.05,0,0,0.05,23.550000000000004,0)" xlink:href="#x"/></g><g id="f"><use transform="matrix(0.05,0,0,0.05,0,0)" xlink:href="#z"/><use transform="matrix(0.05,0,0,0.05,12,0)" xlink:href="#A"/><use transform="matrix(0.05,0,0,0.05,21,0)" xlink:href="#r"/><use transform="matrix(0.05,0,0,0.05,26,0)" xlink:href="#s"/><use transform="matrix(0.05,0,0,0.05,36,0)" xlink:href="#t"/><use transform="matrix(0.05,0,0,0.05,41.95,0)" xlink:href="#q"/><use transform="matrix(0.05,0,0,0.05,51.95,0)" xlink:href="#u"/><use transform="matrix(0.05,0,0,0.05,61.95,0)" xlink:href="#v"/></g><path d="M85-194c31 0 48 13 60 33l-1-100h32l1 261h-30c-2-10 0-23-3-31C134-8 116 4 85 4 32 4 16-35 15-94c0-66 23-100 70-100zm9 24c-40 0-46 34-46 75 0 40 6 74 45 74 42 0 51-32 51-76 0-42-9-74-50-73" id="D"/><path d="M115-194c55 1 70 41 70 98S169 2 115 4C84 4 66-9 55-30l1 105H24l-1-265h31l2 30c10-21 28-34 59-34zm-8 174c40 0 45-34 45-75s-6-73-45-74c-42 0-51 32-51 76 0 43 10 73 51 73" id="E"/><path d="M100-194c62-1 85 37 85 99 1 63-27 99-86 99S16-35 15-95c0-66 28-99 85-99zM99-20c44 1 53-31 53-75 0-43-8-75-51-75s-53 32-53 75 10 74 51 75" id="F"/><path d="M24-231v-30h32v30H24zM24 0v-190h32V0H24" id="G"/><g id="g"><use transform="matrix(0.05,0,0,0.05,0,0)" xlink:href="#z"/><use transform="matrix(0.05,0,0,0.05,12,0)" xlink:href="#q"/><use transform="matrix(0.05,0,0,0.05,22,0)" xlink:href="#D"/><use transform="matrix(0.05,0,0,0.05,32,0)" xlink:href="#E"/><use transform="matrix(0.05,0,0,0.05,42,0)" xlink:href="#F"/><use transform="matrix(0.05,0,0,0.05,52,0)" xlink:href="#G"/><use transform="matrix(0.05,0,0,0.05,55.95,0)" xlink:href="#q"/><use transform="matrix(0.05,0,0,0.05,65.95,0)" xlink:href="#r"/></g><path d="M194 0L95-120 63-95V0H30v-248h33v124l119-124h40L117-140 236 0h-42" id="H"/><path d="M210-169c-67 3-38 105-44 169h-31v-121c0-29-5-50-35-48C34-165 62-65 56 0H25l-1-190h30c1 10-1 24 2 32 10-44 99-50 107 0 11-21 27-35 58-36 85-2 47 119 55 194h-31v-121c0-29-5-49-35-48" id="I"/><g id="h"><use transform="matrix(0.05,0,0,0.05,0,0)" xlink:href="#H"/><use transform="matrix(0.05,0,0,0.05,12,0)" xlink:href="#u"/><use transform="matrix(0.05,0,0,0.05,22,0)" xlink:href="#I"/><use transform="matrix(0.05,0,0,0.05,36.95,0)" xlink:href="#u"/><use transform="matrix(0.05,0,0,0.05,46.95,0)" xlink:href="#G"/><use transform="matrix(0.05,0,0,0.05,50.900000000000006,0)" xlink:href="#v"/><use transform="matrix(0.05,0,0,0.05,54.85,0)" xlink:href="#G"/><use transform="matrix(0.05,0,0,0.05,58.80000000000001,0)" xlink:href="#F"/></g><path d="M205 0l-28-72H64L36 0H1l101-248h38L239 0h-34zm-38-99l-47-123c-12 45-31 82-46 123h93" id="J"/><path d="M135-143c-3-34-86-38-87 0 15 53 115 12 119 90S17 21 10-45l28-5c4 36 97 45 98 0-10-56-113-15-118-90-4-57 82-63 122-42 12 7 21 19 24 35" id="K"/><path d="M143 0L79-87 56-68V0H24v-261h32v163l83-92h37l-77 82L181 0h-38" id="L"/><g id="i"><use transform="matrix(0.05,0,0,0.05,0,0)" xlink:href="#J"/><use transform="matrix(0.05,0,0,0.05,12,0)" xlink:href="#K"/><use transform="matrix(0.05,0,0,0.05,21,0)" xlink:href="#r"/><use transform="matrix(0.05,0,0,0.05,26,0)" xlink:href="#s"/><use transform="matrix(0.05,0,0,0.05,36,0)" xlink:href="#t"/><use transform="matrix(0.05,0,0,0.05,41.95,0)" xlink:href="#G"/><use transform="matrix(0.05,0,0,0.05,45.900000000000006,0)" xlink:href="#K"/><use transform="matrix(0.05,0,0,0.05,54.900000000000006,0)" xlink:href="#L"/></g><path d="M33-154v-36h34v36H33zM33 0v-36h34V0H33" id="M"/><path d="M54-142c48-35 137-8 131 61C196 18 31 33 14-55l32-4c7 23 22 37 52 37 35-1 51-22 54-58 4-55-73-65-99-34H22l8-134h141v27H59" id="N"/><path d="M101-251c68 0 85 55 85 127S166 4 100 4C33 4 14-52 14-124c0-73 17-127 87-127zm-1 229c47 0 54-49 54-102s-4-102-53-102c-51 0-55 48-55 102 0 53 5 102 54 102" id="O"/><path d="M64 0c3-98 48-159 88-221H18v-27h164v26C143-157 98-101 97 0H64" id="P"/><g id="j"><use transform="matrix(0.05,0,0,0.05,0,0)" xlink:href="#M"/><use transform="matrix(0.05,0,0,0.05,5,0)" xlink:href="#N"/><use transform="matrix(0.05,0,0,0.05,15,0)" xlink:href="#O"/><use transform="matrix(0.05,0,0,0.05,25,0)" xlink:href="#P"/><use transform="matrix(0.05,0,0,0.05,35,0)" xlink:href="#O"/></g><g id="k"><use transform="matrix(0.05,0,0,0.05,0,0)" xlink:href="#w"/><use transform="matrix(0.05,0,0,0.05,12,0)" xlink:href="#p"/><use transform="matrix(0.05,0,0,0.05,17,0)" xlink:href="#x"/></g><g id="l"><use transform="matrix(0.05,0,0,0.05,0,0)" xlink:href="#z"/><use transform="matrix(0.05,0,0,0.05,12,0)" xlink:href="#A"/><use transform="matrix(0.05,0,0,0.05,21,0)" xlink:href="#r"/><use transform="matrix(0.05,0,0,0.05,26,0)" xlink:href="#s"/><use transform="matrix(0.05,0,0,0.05,36,0)" xlink:href="#t"/><use transform="matrix(0.05,0,0,0.05,41.95,0)" xlink:href="#q"/><use transform="matrix(0.05,0,0,0.05,51.95,0)" xlink:href="#u"/><use transform="matrix(0.05,0,0,0.05,61.95,0)" xlink:href="#v"/></g><g id="m"><use transform="matrix(0.05,0,0,0.05,0,0)" xlink:href="#B"/><use transform="matrix(0.05,0,0,0.05,12.600000000000001,0)" xlink:href="#C"/><use transform="matrix(0.05,0,0,0.05,23.550000000000004,0)" xlink:href="#x"/></g><g id="n"><use transform="matrix(0.05,0,0,0.05,0,0)" xlink:href="#z"/><use transform="matrix(0.05,0,0,0.05,12,0)" xlink:href="#A"/><use transform="matrix(0.05,0,0,0.05,21,0)" xlink:href="#r"/><use transform="matrix(0.05,0,0,0.05,26,0)" xlink:href="#s"/><use transform="matrix(0.05,0,0,0.05,36,0)" xlink:href="#t"/><use transform="matrix(0.05,0,0,0.05,41.95,0)" xlink:href="#q"/><use transform="matrix(0.05,0,0,0.05,51.95,0)" xlink:href="#u"/><use transform="matrix(0.05,0,0,0.05,61.95,0)" xlink:href="#v"/></g><g id="o"><use transform="matrix(0.05,0,0,0.05,0,0)" xlink:href="#p"/><use transform="matrix(0.05,0,0,0.05,5,0)" xlink:href="#q"/><use transform="matrix(0.05,0,0,0.05,15,0)" xlink:href="#r"/><use transform="matrix(0.05,0,0,0.05,20,0)" xlink:href="#s"/><use transform="matrix(0.05,0,0,0.05,30,0)" xlink:href="#t"/><use transform="matrix(0.05,0,0,0.05,35.95,0)" xlink:href="#q"/><use transform="matrix(0.05,0,0,0.05,45.95,0)" xlink:href="#u"/><use transform="matrix(0.05,0,0,0.05,55.95,0)" xlink:href="#v"/></g></defs></g></svg>